<?xml version="1.0" encoding="UTF-8" standalone="no"?>
<!DOCTYPE svg PUBLIC "-//W3C//DTD SVG 1.1//EN"
 "http://www.w3.org/Graphics/SVG/1.1/DTD/svg11.dtd">
<!-- Generated by graphviz version 2.26.3 (20100126.1600)
 -->
<!-- Title: models_diagram Pages: 1 -->
<svg width="374pt" height="452pt"
 viewBox="0.00 0.00 374.00 452.00" xmlns="http://www.w3.org/2000/svg" xmlns:xlink="http://www.w3.org/1999/xlink">
<g id="graph1" class="graph" transform="scale(1 1) rotate(0) translate(4 448)">
<title>models_diagram</title>
<polygon fill="white" stroke="white" points="-4,5 -4,-448 371,-448 371,5 -4,5"/>
<!-- _diagram_info -->
<g id="node1" class="node"><title>_diagram_info</title>
<text text-anchor="start" x="8" y="-427.8" font-family="Times,serif" font-size="13.00">Models diagram</text>
<text text-anchor="start" x="8" y="-412.8" font-family="Times,serif" font-size="13.00">Date: Feb 19 2011 &#45; 16:18</text>
<text text-anchor="start" x="8" y="-397.8" font-family="Times,serif" font-size="13.00">Migration version: 20110218234832</text>
<text text-anchor="start" x="8" y="-382.8" font-family="Times,serif" font-size="13.00">Generated by RailRoady 1.0.1</text>
<text text-anchor="start" x="8" y="-367.8" font-family="Times,serif" font-size="13.00">http://railroady.prestonlee.com</text>
</g>
<!-- Attendee -->
<g id="node2" class="node"><title>Attendee</title>
<ellipse fill="none" stroke="black" cx="269" cy="-402" rx="45.1145" ry="18"/>
<text text-anchor="middle" x="269" y="-397.4" font-family="Times,serif" font-size="14.00">Attendee</text>
</g>
<!-- Score -->
<g id="node7" class="node"><title>Score</title>
<ellipse fill="none" stroke="black" cx="334" cy="-306" rx="32.1994" ry="18"/>
<text text-anchor="middle" x="334" y="-301.4" font-family="Times,serif" font-size="14.00">Score</text>
</g>
<!-- Attendee&#45;&gt;Score -->
<g id="edge2" class="edge"><title>Attendee&#45;&gt;Score</title>
<path fill="none" stroke="black" d="M285.642,-377.421C295.232,-363.258 307.261,-345.492 316.923,-331.222"/>
<ellipse fill="none" stroke="black" cx="283.165" cy="-381.08" rx="4.00002" ry="4.00002"/>
<polygon fill="black" stroke="black" points="316.983,-331.133 326.316,-325.375 319.786,-326.993 322.59,-322.852 322.59,-322.852 322.59,-322.852 319.786,-326.993 318.863,-320.329 316.983,-331.133 316.983,-331.133"/>
</g>
<!-- Meeting -->
<g id="node3" class="node"><title>Meeting</title>
<ellipse fill="none" stroke="black" cx="269" cy="-234" rx="41.7645" ry="18"/>
<text text-anchor="middle" x="269" y="-229.4" font-family="Times,serif" font-size="14.00">Meeting</text>
</g>
<!-- Meeting&#45;&gt;Attendee -->
<g id="edge10" class="edge"><title>Meeting&#45;&gt;Attendee</title>
<path fill="none" stroke="black" d="M269,-260.11C269,-290.787 269,-341.518 269,-373.281"/>
<ellipse fill="none" stroke="black" cx="269" cy="-256.022" rx="4" ry="4"/>
<polygon fill="black" stroke="black" points="269,-373.701 264.5,-383.701 269,-378.701 269,-383.701 269,-383.701 269,-383.701 269,-378.701 273.5,-383.701 269,-373.701 269,-373.701"/>
</g>
<!-- Packlet -->
<g id="node4" class="node"><title>Packlet</title>
<ellipse fill="none" stroke="black" cx="302" cy="-18" rx="38.2368" ry="18"/>
<text text-anchor="middle" x="302" y="-13.4" font-family="Times,serif" font-size="14.00">Packlet</text>
</g>
<!-- Meeting&#45;&gt;Packlet -->
<g id="edge4" class="edge"><title>Meeting&#45;&gt;Packlet</title>
<path fill="none" stroke="black" d="M272.978,-207.961C279.214,-167.146 291.241,-88.4238 297.681,-46.2723"/>
<ellipse fill="none" stroke="black" cx="272.361" cy="-212.001" rx="4.00001" ry="4.00001"/>
<polygon fill="black" stroke="black" points="297.718,-46.0304 303.676,-36.8247 298.473,-41.0877 299.228,-36.1451 299.228,-36.1451 299.228,-36.1451 298.473,-41.0877 294.779,-35.4654 297.718,-46.0304 297.718,-46.0304"/>
</g>
<!-- Person -->
<g id="node5" class="node"><title>Person</title>
<ellipse fill="none" stroke="black" cx="199" cy="-162" rx="36.8951" ry="18"/>
<text text-anchor="middle" x="199" y="-157.4" font-family="Times,serif" font-size="14.00">Person</text>
</g>
<!-- Meeting&#45;&gt;Person -->
<g id="edge6" class="edge"><title>Meeting&#45;&gt;Person</title>
<path fill="none" stroke="black" d="M245.769,-210.106C238.241,-202.362 229.89,-193.773 222.353,-186.02"/>
<polygon fill="black" stroke="black" points="245.794,-210.131 249.538,-220.438 249.279,-213.716 252.765,-217.301 252.765,-217.301 252.765,-217.301 249.279,-213.716 255.991,-214.164 245.794,-210.131 245.794,-210.131"/>
<polygon fill="black" stroke="black" points="222.118,-185.779 218.374,-175.472 218.633,-182.194 215.147,-178.609 215.147,-178.609 215.147,-178.609 218.633,-182.194 211.921,-181.746 222.118,-185.779 222.118,-185.779"/>
</g>
<!-- Submission -->
<g id="node8" class="node"><title>Submission</title>
<ellipse fill="none" stroke="black" cx="220" cy="-90" rx="53.838" ry="18"/>
<text text-anchor="middle" x="220" y="-85.4" font-family="Times,serif" font-size="14.00">Submission</text>
</g>
<!-- Meeting&#45;&gt;Submission -->
<g id="edge8" class="edge"><title>Meeting&#45;&gt;Submission</title>
<path fill="none" stroke="black" d="M262.841,-205.945C258.578,-187.992 252.357,-164.339 245,-144 241.783,-135.106 237.67,-125.668 233.713,-117.212"/>
<polygon fill="black" stroke="black" points="262.865,-206.045 260.735,-216.803 263.992,-210.917 265.119,-215.788 265.119,-215.788 265.119,-215.788 263.992,-210.917 269.503,-214.773 262.865,-206.045 262.865,-206.045"/>
<polygon fill="black" stroke="black" points="233.696,-117.178 233.424,-106.215 231.532,-112.67 229.367,-108.163 229.367,-108.163 229.367,-108.163 231.532,-112.67 225.311,-110.111 233.696,-117.178 233.696,-117.178"/>
</g>
<!-- Packlet&#45;&gt;Score -->
<g id="edge12" class="edge"><title>Packlet&#45;&gt;Score</title>
<path fill="none" stroke="black" d="M309.917,-43.7664C322.252,-86.6613 344.234,-175.56 340,-252 339.531,-260.476 338.65,-269.667 337.704,-278.022"/>
<ellipse fill="none" stroke="black" cx="308.786" cy="-39.9006" rx="4.00001" ry="4.00001"/>
<polygon fill="black" stroke="black" points="337.694,-278.113 332.031,-287.504 337.096,-283.077 336.499,-288.042 336.499,-288.042 336.499,-288.042 337.096,-283.077 340.967,-288.579 337.694,-278.113 337.694,-278.113"/>
</g>
<!-- Person&#45;&gt;Attendee -->
<g id="edge18" class="edge"><title>Person&#45;&gt;Attendee</title>
<path fill="none" stroke="black" d="M203.708,-188.388C207.138,-206.433 212.188,-230.825 218,-252 229.919,-295.421 247.448,-344.645 258.54,-374.496"/>
<ellipse fill="none" stroke="black" cx="202.892" cy="-184.014" rx="4.00001" ry="4.00001"/>
<polygon fill="black" stroke="black" points="258.668,-374.841 257.96,-385.783 260.421,-379.523 262.174,-384.206 262.174,-384.206 262.174,-384.206 260.421,-379.523 266.389,-382.628 258.668,-374.841 258.668,-374.841"/>
</g>
<!-- Rank -->
<g id="node6" class="node"><title>Rank</title>
<ellipse fill="none" stroke="black" cx="117" cy="-90" rx="30.8577" ry="18"/>
<text text-anchor="middle" x="117" y="-85.4" font-family="Times,serif" font-size="14.00">Rank</text>
</g>
<!-- Person&#45;&gt;Rank -->
<g id="edge14" class="edge"><title>Person&#45;&gt;Rank</title>
<path fill="none" stroke="black" d="M174.675,-140.642C164.334,-131.561 152.286,-120.983 141.884,-111.849"/>
<ellipse fill="none" stroke="black" cx="177.796" cy="-143.382" rx="4.00002" ry="4.00002"/>
<polygon fill="black" stroke="black" points="141.82,-111.793 137.275,-101.814 138.063,-108.494 134.306,-105.195 134.306,-105.195 134.306,-105.195 138.063,-108.494 131.336,-108.577 141.82,-111.793 141.82,-111.793"/>
</g>
<!-- Person&#45;&gt;Submission -->
<g id="edge16" class="edge"><title>Person&#45;&gt;Submission</title>
<path fill="none" stroke="black" d="M206.556,-136.092C208.268,-130.224 210.093,-123.967 211.829,-118.016"/>
<ellipse fill="none" stroke="black" cx="205.419" cy="-139.991" rx="4.00001" ry="4.00001"/>
<polygon fill="black" stroke="black" points="211.829,-118.013 218.949,-109.673 213.229,-113.213 214.629,-108.413 214.629,-108.413 214.629,-108.413 213.229,-113.213 210.309,-107.153 211.829,-118.013 211.829,-118.013"/>
</g>
<!-- Score&#45;&gt;Meeting -->
<g id="edge20" class="edge"><title>Score&#45;&gt;Meeting</title>
<path fill="none" stroke="black" d="M313.873,-283.705C306.219,-275.227 297.489,-265.557 289.776,-257.013"/>
<ellipse fill="none" stroke="black" cx="316.57" cy="-286.693" rx="4.00002" ry="4.00002"/>
<ellipse fill="black" stroke="black" cx="287.05" cy="-253.994" rx="4.00002" ry="4.00002"/>
</g>
<!-- Submission&#45;&gt;Packlet -->
<g id="edge22" class="edge"><title>Submission&#45;&gt;Packlet</title>
<path fill="none" stroke="black" d="M245.679,-67.4523C255.352,-58.9596 266.353,-49.3002 276.049,-40.7859"/>
<ellipse fill="none" stroke="black" cx="242.439" cy="-70.2978" rx="4.00002" ry="4.00002"/>
<polygon fill="black" stroke="black" points="276.316,-40.552 286.799,-37.3355 280.073,-37.253 283.83,-33.954 283.83,-33.954 283.83,-33.954 280.073,-37.253 280.861,-30.5725 276.316,-40.552 276.316,-40.552"/>
</g>
<!-- Submission&#45;&gt;Score -->
<g id="edge24" class="edge"><title>Submission&#45;&gt;Score</title>
<path fill="none" stroke="black" d="M245.981,-114.267C269.463,-137.855 302.89,-175.902 320,-216 328.353,-235.574 331.792,-259.442 333.176,-277.679"/>
<polygon fill="black" stroke="black" points="245.863,-114.151 241.898,-103.927 242.301,-110.642 238.739,-107.133 238.739,-107.133 238.739,-107.133 242.301,-110.642 235.581,-110.338 245.863,-114.151 245.863,-114.151"/>
<polygon fill="black" stroke="black" points="333.178,-277.709 329.283,-287.959 333.476,-282.7 333.775,-287.691 333.775,-287.691 333.775,-287.691 333.476,-282.7 338.267,-287.422 333.178,-277.709 333.178,-277.709"/>
</g>
</g>
</svg>
